<?xml version="1.0" standalone="no"?><!DOCTYPE svg PUBLIC "-//W3C//DTD SVG 1.1//EN" "http://www.w3.org/Graphics/SVG/1.1/DTD/svg11.dtd"><svg t="1536331374610" class="icon" style="" viewBox="0 0 1024 1024" version="1.1" xmlns="http://www.w3.org/2000/svg" p-id="6037" xmlns:xlink="http://www.w3.org/1999/xlink" width="200" height="200"><defs><style type="text/css">@font-face {
  font-family: SimSun;
  src: local("Noto Serif CJK SC");
  font-weight: 400;
  unicode-range: U+20-FFFF;
}
@font-face {
  font-family: SimSun;
  src: local("Noto Serif CJK SC Bold");
  font-weight: 700;
  unicode-range: U+20-FFFF;
}
@font-face {
  font-family: "宋体";
  src: local("Noto Serif CJK SC");
  font-weight: 400;
  unicode-range: U+20-FFFF;
}
@font-face {
  font-family: "宋体";
  src: local("Noto Serif CJK SC Bold");
  font-weight: 700;
  unicode-range: U+20-FFFF;
}
@font-face {
  font-family: NSimSun;
  src: local("Noto Serif CJK SC");
  font-weight: 400;
  unicode-range: U+20-FFFF;
}
@font-face {
  font-family: NSimSun;
  src: local("Noto Serif CJK SC Bold");
  font-weight: 700;
  unicode-range: U+20-FFFF;
}
@font-face {
  font-family: "新宋体";
  src: local("Noto Serif CJK SC");
  font-weight: 400;
  unicode-range: U+20-FFFF;
}
@font-face {
  font-family: "新宋体";
  src: local("Noto Serif CJK SC Bold");
  font-weight: 700;
  unicode-range: U+20-FFFF;
}
@font-face {
  font-family: Arial;
  src: local("Neue Haas Grotesk Text Pro");
  unicode-range: U+20-FFFF;
}
@font-face {
  font-family: Helvetica;
  src: local("Neue Haas Grotesk Text Pro");
  unicode-range: U+20-FFFF;
}
@font-face {
  font-family: "Helvetica Neue";
  src: local("Neue Haas Grotesk Text Pro");
  unicode-range: U+20-FFFF;
}
@font-face {
  font-family: Tahoma;
  src: local("Neue Haas Unica W1G");
  unicode-range: U+20-52F;
}
@font-face {
  font-family: Verdana;
  src: local("SF UI Text Regular");
  unicode-range: U+20-52F;
}
@font-face {
  font-family: "Courier New";
  src: local("XHei WP Mono");
  unicode-range: U+4E00-9FFF;
}
@font-face {
  font-family: Courier;
  src: local("XHei WP Mono");
  unicode-range: U+4E00-9FFF;
}
@font-face {
  font-family: Consolas;
  src: local("Sarasa Mono SC");
  unicode-range: U+4E00-9FFF;
}
@font-face {
  font-family: "Hiragino Sans GB";
  src: local("XHei WP");
  unicode-range: U+2E80-FFFF;
}
@font-face {
  font-family: "MS PGothic";
  src: local("Sarasa Gothic J");
  unicode-range: U+2E80-FFFF;
}
@font-face {
  font-family: "ＭＳ Ｐゴシック";
  src: local("Sarasa Gothic J");
  unicode-range: U+2E80-FFFF;
}
@font-face {
  font-family: "MS PMincho";
  src: local("Noto Serif CJK J");
  unicode-range: U+2E80-FFFF;
}
@font-face {
  font-family: "Microsoft JhengHei";
  src: local("Sarasa UI TC");
  unicode-range: U+2E80-FFFF;
}
@font-face {
  font-family: "微軟正黑";
  src: local("Sarasa UI TC");
  unicode-range: U+2E80-FFFF;
}
@font-face {
  font-family: PMingLiU;
  src: local("Noto Serif CJK TC");
  unicode-range: U+2E80-FFFF;
}
@font-face {
  font-family: "新細明體";
  src: local("Noto Serif CJK TC");
  unicode-range: U+2E80-FFFF;
}
@font-face {
  font-family: MingLiU;
  src: local("Noto Serif CJK TC");
  unicode-range: U+2E80-FFFF;
}
@font-face {
  font-family: "細明體";
  src: local("Noto Serif CJK TC");
  unicode-range: U+2E80-FFFF;
}
</style></defs><path d="M893.3 293.3L730.7 130.7c-7.5-7.5-16.7-13-26.7-16V112H144c-17.7 0-32 14.3-32 32v736c0 17.7 14.3 32 32 32h736c17.7 0 32-14.3 32-32V338.5c0-17-6.7-33.2-18.7-45.2zM384 184h256v104H384V184z m456 656H184V184h136v136c0 17.7 14.3 32 32 32h320c17.7 0 32-14.3 32-32V205.8l136 136V840z" p-id="6038" fill="#ffffff"></path><path d="M512 442c-79.5 0-144 64.5-144 144s64.5 144 144 144 144-64.5 144-144-64.5-144-144-144z m0 224c-44.2 0-80-35.8-80-80s35.8-80 80-80 80 35.8 80 80-35.8 80-80 80z" p-id="6039" fill="#ffffff"></path></svg>